Coordinates
version=1
nRows=29
nColumns=22
inDegrees=yes

Units are S.I. units (second, meters, Newtons, ...)
If the header above contains a line with 'inDegrees', this indicates whether rotational values are in degrees (yes) or radians (no).

endheader
time	pelvis_tilt	pelvis_list	pelvis_rotation	pelvis_tx	pelvis_ty	pelvis_tz	hip_flexion_r	hip_adduction_r	hip_rotation_r	knee_angle_r	ankle_angle_r	subtalar_angle_r	hip_flexion_l	hip_adduction_l	hip_rotation_l	knee_angle_l	ankle_angle_l	subtalar_angle_l	lumbar_extension	lumbar_bending	lumbar_rotation
      1.44000000	     -6.21494515	     -1.59106343	    -15.67013409	     -1.03613491	      0.86579139	     -0.43367427	     11.79677474	      3.77532234	      7.66534353	    -26.72355505	     24.52459843	     -9.16847546	     14.95969356	    -12.02030576	     -6.16126857	    -39.46047816	     20.12091042	      5.16172314	     -1.73313714	      2.57240162	     13.98958722
      1.45000000	     -5.84018505	     -1.69413330	    -15.64302436	     -1.03372276	      0.86531046	     -0.43197484	     11.28544394	      3.88109182	      7.70976154	    -26.97193200	     24.88352528	     -9.30984760	     16.21022705	    -12.18041313	     -5.49604426	    -42.69649978	     19.25803234	      4.93635735	     -2.34192291	      2.70947861	     13.92011255
      1.46000000	     -5.48754250	     -1.73946614	    -15.58784895	     -1.03124196	      0.86491601	     -0.43043940	     10.80546421	      3.90728313	      7.67142448	    -27.20581448	     25.22141400	     -9.48602424	     17.58304708	    -12.25232108	     -4.85788360	    -45.94931674	     18.29154790	      4.53317757	     -2.91849543	      2.78567014	     13.86450480
      1.47000000	     -5.14060047	     -1.74047986	    -15.49366741	     -1.02857203	      0.86471757	     -0.42905137	     10.25628017	      3.86168539	      7.61514868	    -27.29370075	     25.52230695	     -9.60426726	     19.00597324	    -12.23303326	     -4.23631643	    -49.09396022	     17.27290812	      4.06973620	     -3.46985154	      2.81233940	     13.77728363
      1.48000000	     -4.81584258	     -1.69215581	    -15.38780295	     -1.02568683	      0.86470981	     -0.42777956	      9.66684817	      3.74185727	      7.52393138	    -27.25181226	     25.76368192	     -9.65549505	     20.45166028	    -12.13779172	     -3.70103521	    -52.03417725	     16.29957484	      3.65678703	     -3.97144628	      2.79118538	     13.69032053
      1.49000000	     -4.55459518	     -1.58161098	    -15.31106860	     -1.02257249	      0.86484608	     -0.42654650	      9.08097209	      3.55453383	      7.44560960	    -27.07652455	     25.95899338	     -9.65476027	     21.92156003	    -11.98761412	     -3.30860224	    -54.68498558	     15.45308732	      3.26465122	     -4.36650229	      2.71467919	     13.67361085
      1.50000000	     -4.33244812	     -1.41534157	    -15.26510374	     -1.01919584	      0.86517372	     -0.42533588	      8.46916137	      3.29797214	      7.37204317	    -26.76647034	     26.08347786	     -9.59416712	     23.35823080	    -11.79899593	     -3.08402250	    -56.97640629	     14.78502897	      3.01559686	     -4.68211290	      2.58401063	     13.69302532
      1.51000000	     -4.16968298	     -1.19107503	    -15.28357402	     -1.01559227	      0.86565236	     -0.42408493	      7.86493532	      2.98269073	      7.33521133	    -26.33651896	     26.13671367	     -9.47868719	     24.76220743	    -11.60274102	     -3.05942724	    -58.86628302	     14.30067488	      2.84576263	     -4.89692773	      2.39654146	     13.79885441
      1.52000000	     -4.06327783	     -0.91754574	    -15.37370523	     -1.01178034	      0.86626256	     -0.42277531	      7.26915411	      2.61979900	      7.35166736	    -25.79633539	     26.13730661	     -9.29309150	     26.11880203	    -11.42097099	     -3.22773322	    -60.33157789	     13.98944077	      2.71922075	     -5.01808733	      2.16048709	     14.01720092
      1.53000000	     -3.95379930	     -0.61312858	    -15.52423525	     -1.00772956	      0.86708663	     -0.42139199	      6.58701422	      2.21197599	      7.42566020	    -25.09476764	     26.07748388	     -9.19448362	     27.34565873	    -11.26233484	     -3.56819324	    -61.34348656	     13.80614443	      2.69925756	     -5.11659414	      1.87634543	     14.31156048
      1.54000000	     -3.95313940	     -0.27456817	    -15.75013054	     -1.00354936	      0.86785795	     -0.41993734	      6.01610199	      1.78482658	      7.51484143	    -24.36710246	     25.96086825	     -8.74575511	     28.59483495	    -11.17534821	     -4.07389204	    -61.95965261	     13.68888533	      2.50357340	     -5.07238550	      1.57443903	     14.72406962
      1.55000000	     -3.94642223	      0.05443523	    -16.02522564	     -0.99918759	      0.86875058	     -0.41841190	      5.36035237	      1.35885575	      7.66733719	    -23.50153367	     25.79830913	     -8.49782009	     29.71663034	    -11.15054769	     -4.66814262	    -62.15884187	     13.61498412	      2.38639754	     -5.02771119	      1.26964015	     15.22027236
      1.56000000	     -3.96260127	      0.37776838	    -16.31641918	     -0.99465366	      0.86964985	     -0.41686301	      4.67827982	      0.92725113	      7.80855087	    -22.55096369	     25.59665857	     -8.13395360	     30.76470534	    -11.17670392	     -5.30220247	    -61.97935888	     13.54312731	      2.14854417	     -4.94947708	      0.96799257	     15.74114456
      1.57000000	     -4.01708311	      0.66342908	    -16.62300394	     -0.98999114	      0.87048713	     -0.41529054	      3.99577477	      0.53434651	      7.93147849	    -21.54700888	     25.31169629	     -7.84931471	     31.76315329	    -11.28087634	     -5.91986438	    -61.46416738	     13.39952878	      1.93299649	     -4.83757878	      0.70918394	     16.32297339
      1.58000000	     -4.04751597	      0.93622551	    -16.92064364	     -0.98513866	      0.87128205	     -0.41378045	      3.23704988	      0.12278277	      8.03465184	    -20.46922237	     25.08906216	     -7.33943190	     32.64399740	    -11.38080348	     -6.48045546	    -60.62485528	     13.28219181	      1.48555062	     -4.75308472	      0.45536038	     16.89578689
      1.59000000	     -4.11047623	      1.15260231	    -17.21940974	     -0.98017156	      0.87192198	     -0.41228109	      2.48080985	     -0.22912180	      8.12110457	    -19.37300219	     24.82386312	     -6.92183336	     33.48113651	    -11.54763921	     -6.94846651	    -59.51874636	     13.08188544	      1.12500551	     -4.65559354	      0.26647456	     17.50913591
      1.60000000	     -4.17168886	      1.33249014	    -17.49549588	     -0.97504002	      0.87240741	     -0.41085715	      1.69523282	     -0.56172774	      8.14719947	    -18.26387449	     24.55549786	     -6.46230642	     34.24525137	    -11.72817549	     -7.30690827	    -58.17220467	     12.83899151	      0.75266887	     -4.57531192	      0.11509574	     18.08768073
      1.61000000	     -4.23363624	      1.46638092	    -17.75790142	     -0.96976703	      0.87270379	     -0.40951178	      0.89186517	     -0.85914635	      8.13965352	    -17.16512725	     24.30204624	     -6.00333068	     34.94384146	    -11.92635500	     -7.53599600	    -56.62173027	     12.56159282	      0.43545483	     -4.51784089	      0.01273333	     18.66306897
      1.62000000	     -4.28604312	      1.56815883	    -17.99767575	     -0.96436660	      0.87279285	     -0.40828115	      0.07279194	     -1.13710542	      8.11268981	    -16.09513340	     24.10355507	     -5.50097278	     35.57090878	    -12.10710877	     -7.61328419	    -54.88772290	     12.28317888	      0.16650675	     -4.49521388	     -0.05972598	     19.21049287
      1.63000000	     -4.33616207	      1.61245280	    -18.23770224	     -0.95882972	      0.87265426	     -0.40708166	     -0.75674120	     -1.36034076	      8.06641802	    -15.06517327	     23.91913962	     -5.08095452	     36.13581335	    -12.33818931	     -7.59891509	    -53.02076472	     11.97800090	      0.02581900	     -4.50288136	     -0.07629775	     19.74968826
      1.64000000	     -4.37131713	      1.62740253	    -18.46503793	     -0.95316023	      0.87229697	     -0.40597578	     -1.59549204	     -1.56296829	      8.02530004	    -14.08980093	     23.77783490	     -4.67346390	     36.62783497	    -12.56060919	     -7.46847009	    -51.02525364	     11.66846686	     -0.02629022	     -4.54929957	     -0.06896960	     20.26196066
      1.65000000	     -4.39531898	      1.62049559	    -18.68218803	     -0.94735248	      0.87170226	     -0.40493115	     -2.43226713	     -1.74783271	      7.99079874	    -13.18121279	     23.72054006	     -4.27162653	     37.05599002	    -12.78229635	     -7.26057546	    -48.93071778	     11.36126161	      0.01973142	     -4.62496319	     -0.04861140	     20.74231404
      1.66000000	     -4.40607191	      1.58544810	    -18.89973257	     -0.94141269	      0.87089338	     -0.40392780	     -3.26346775	     -1.90733882	      7.96602891	    -12.35062272	     23.70143079	     -3.91471521	     37.41556474	    -13.01854830	     -6.99675475	    -46.75693645	     11.03256341	      0.15900110	     -4.73478010	     -0.00947437	     21.20475689
      1.67000000	     -4.40799434	      1.53620397	    -19.11627903	     -0.93533474	      0.86986582	     -0.40297411	     -4.07621095	     -2.05496246	      7.95102632	    -11.60528202	     23.73732292	     -3.59721581	     37.71834495	    -13.26065529	     -6.70247411	    -44.52798200	     10.68014891	      0.37805440	     -4.86718567	      0.03603693	     21.64444411
      1.68000000	     -4.40452445	      1.47780097	    -19.33100620	     -0.92910628	      0.86862803	     -0.40206706	     -4.86396925	     -2.19396159	      7.94213114	    -10.94809894	     23.82791679	     -3.31671544	     37.97224722	    -13.50789268	     -6.39733646	    -42.26748916	     10.30153066	      0.65804903	     -5.01406805	      0.08411325	     22.06144904
      1.69000000	     -4.40190826	      1.41570642	    -19.54089742	     -0.92272739	      0.86717728	     -0.40119619	     -5.61607074	     -2.32643369	      7.93665058	    -10.38673278	     23.98316814	     -3.06425618	     38.19128864	    -13.75861191	     -6.09229692	    -39.99787679	      9.89848084	      0.98507150	     -5.16490323	      0.12714657	     22.45648602
      1.70000000	     -4.39812120	      1.35082803	    -19.74836423	     -0.91619663	      0.86553591	     -0.40040015	     -6.32846098	     -2.45827975	      7.93726148	     -9.92854483	     24.20421149	     -2.82328687	     38.37702113	    -14.00913304	     -5.79800018	    -37.73988305	      9.48520617	      1.36031880	     -5.32400504	      0.17384927	     22.82155938
      1.71000000	     -4.40421340	      1.28098723	    -19.94744542	     -0.90950911	      0.86369815	     -0.39963568	     -6.99190062	     -2.57856075	      7.93702248	     -9.57611875	     24.47827557	     -2.60035935	     38.55194636	    -14.27029498	     -5.52504138	    -35.52434905	      9.06956449	      1.74955433	     -5.47537462	      0.21990005	     23.16418611
      1.72000000	     -4.41799128	      1.20273610	    -20.14187925	     -0.90266024	      0.86168144	     -0.39892683	     -7.60742309	     -2.68864417	      7.93432282	     -9.33249609	     24.80964496	     -2.37940164	     38.72007031	    -14.54560155	     -5.28622111	    -33.37813079	      8.67924534	      2.15831021	     -5.62359531	      0.27657292	     23.48736053
